<svg xmlns="http://www.w3.org/2000/svg" viewBox="0 0 320 693" role="img" aria-label="DiscVault — bibliotheek (voorbeeld)">
  <defs>
    <linearGradient id="p1" x1="0" y1="0" x2="1" y2="1"><stop offset="0" stop-color="#3a4a6b"/><stop offset="1" stop-color="#0f1420"/></linearGradient>
    <linearGradient id="p2" x1="0" y1="0" x2="1" y2="1"><stop offset="0" stop-color="#6b3a4a"/><stop offset="1" stop-color="#1a0f14"/></linearGradient>
    <linearGradient id="p3" x1="0" y1="0" x2="1" y2="1"><stop offset="0" stop-color="#5a4a2a"/><stop offset="1" stop-color="#141008"/></linearGradient>
    <linearGradient id="p4" x1="0" y1="0" x2="1" y2="1"><stop offset="0" stop-color="#2a5a4a"/><stop offset="1" stop-color="#08140f"/></linearGradient>
    <linearGradient id="p5" x1="0" y1="0" x2="1" y2="1"><stop offset="0" stop-color="#4a2a5a"/><stop offset="1" stop-color="#0f0814"/></linearGradient>
    <linearGradient id="p6" x1="0" y1="0" x2="1" y2="1"><stop offset="0" stop-color="#5a5a5a"/><stop offset="1" stop-color="#101010"/></linearGradient>
  </defs>
  <rect width="320" height="693" fill="#0A0A0A"/>
  <text x="20" y="30" fill="#fff" font-family="Inter,sans-serif" font-size="12" font-weight="600">21:24</text>
  <g fill="#fff" opacity=".9"><rect x="272" y="20" width="16" height="10" rx="2"/><rect x="292" y="18" width="20" height="12" rx="3" opacity=".5"/></g>
  <!-- top toolbar -->
  <circle cx="34" cy="66" r="16" fill="#1C1C1E"/><path d="M34 60v12M28 66h12" stroke="#FF453A" stroke-width="2.4" stroke-linecap="round"/>
  <rect x="214" y="52" width="88" height="30" rx="15" fill="#1C1C1E"/>
  <rect x="224" y="61" width="12" height="12" rx="2" fill="#FF453A"/><path d="M252 63h10M252 67h10M252 71h10" stroke="#8E8E93" stroke-width="2" stroke-linecap="round"/><path d="M284 62l6 5-6 5" fill="none" stroke="#FF453A" stroke-width="2" stroke-linecap="round" stroke-linejoin="round"/>
  <text x="20" y="124" fill="#fff" font-family="Space Grotesk,sans-serif" font-size="30" font-weight="700">Library</text>
  <!-- poster grid -->
  <g font-family="Inter,sans-serif">
    <!-- row 1 -->
    <rect x="20" y="150" width="86" height="120" rx="9" fill="url(#p1)"/><rect x="26" y="250" width="34" height="16" rx="8" fill="#fff"/><text x="43" y="262" fill="#000" font-size="9" font-weight="700" text-anchor="middle">4K</text>
    <text x="20" y="286" fill="#fff" font-size="11" font-weight="600">A Minecraft…</text><text x="20" y="300" fill="#8E8E93" font-size="10">2025</text>
    <rect x="117" y="150" width="86" height="120" rx="9" fill="url(#p6)"/><rect x="123" y="250" width="34" height="16" rx="8" fill="#fff"/><text x="140" y="262" fill="#000" font-size="9" font-weight="700" text-anchor="middle">4K</text>
    <text x="117" y="286" fill="#fff" font-size="11" font-weight="600">A Star Is Born</text><text x="117" y="300" fill="#8E8E93" font-size="10">2018</text>
    <rect x="214" y="150" width="86" height="120" rx="9" fill="url(#p5)"/><rect x="220" y="250" width="34" height="16" rx="8" fill="#fff"/><text x="237" y="262" fill="#000" font-size="9" font-weight="700" text-anchor="middle">4K</text>
    <text x="214" y="286" fill="#fff" font-size="11" font-weight="600">Aladdin</text><text x="214" y="300" fill="#8E8E93" font-size="10">2019</text>
    <!-- row 2 -->
    <rect x="20" y="316" width="86" height="120" rx="9" fill="url(#p2)"/><rect x="26" y="416" width="34" height="16" rx="8" fill="#fff"/><text x="43" y="428" fill="#000" font-size="9" font-weight="700" text-anchor="middle">4K</text>
    <text x="20" y="452" fill="#fff" font-size="11" font-weight="600">Baby Driver</text><text x="20" y="466" fill="#8E8E93" font-size="10">2017</text>
    <rect x="117" y="316" width="86" height="120" rx="9" fill="url(#p4)"/><circle cx="194" cy="326" r="9" fill="#FF453A"/><text x="194" y="330" fill="#fff" font-size="10" font-weight="700" text-anchor="middle">4</text><rect x="123" y="416" width="52" height="16" rx="8" fill="#FF453A"/><text x="149" y="428" fill="#fff" font-size="9" font-weight="700" text-anchor="middle">Box-set</text>
    <text x="117" y="452" fill="#fff" font-size="11" font-weight="600">Back to the…</text><text x="117" y="466" fill="#8E8E93" font-size="10">1985–1990</text>
    <rect x="214" y="316" width="86" height="120" rx="9" fill="url(#p3)"/><rect x="220" y="416" width="34" height="16" rx="8" fill="#fff"/><text x="237" y="428" fill="#000" font-size="9" font-weight="700" text-anchor="middle">4K</text>
    <text x="214" y="452" fill="#fff" font-size="11" font-weight="600">Bad Boys</text><text x="214" y="466" fill="#8E8E93" font-size="10">1995</text>
    <!-- row 3 (partial) -->
    <rect x="20" y="482" width="86" height="120" rx="9" fill="url(#p6)"/><circle cx="97" cy="492" r="9" fill="#FF453A"/><text x="97" y="496" fill="#fff" font-size="10" font-weight="700" text-anchor="middle">3</text>
    <rect x="117" y="482" width="86" height="120" rx="9" fill="url(#p6)"/><circle cx="194" cy="492" r="9" fill="#FF453A"/><text x="194" y="496" fill="#fff" font-size="10" font-weight="700" text-anchor="middle">3</text>
    <rect x="214" y="482" width="86" height="120" rx="9" fill="url(#p2)"/>
  </g>
  <!-- fade -->
  <rect x="0" y="600" width="320" height="45" fill="#0A0A0A" opacity=".85"/>
  <!-- floating tab bar -->
  <rect x="20" y="645" width="280" height="40" rx="20" fill="#1C1C1E"/>
  <g font-family="Inter,sans-serif" font-size="8" text-anchor="middle">
    <rect x="52" y="656" width="12" height="12" rx="2" fill="#FF453A"/><text x="58" y="681" fill="#FF453A">Library</text>
    <path d="M128 656h10v14l-5-3-5 3z" fill="#8E8E93"/><text x="133" y="681" fill="#8E8E93">Lists</text>
    <circle cx="188" cy="662" r="7" fill="none" stroke="#8E8E93" stroke-width="1.5"/><path d="M188 659v6M185 662h6" stroke="#8E8E93" stroke-width="1.5" stroke-linecap="round"/><text x="188" y="681" fill="#8E8E93">Add</text>
    <circle cx="262" cy="662" r="7" fill="none" stroke="#8E8E93" stroke-width="1.5"/><circle cx="262" cy="660" r="2.5" fill="#8E8E93"/><path d="M257 667a5 5 0 0110 0" fill="#8E8E93"/><text x="262" y="681" fill="#8E8E93">Profile</text>
  </g>
</svg>
