<svg xmlns="http://www.w3.org/2000/svg" viewBox="0 0 320 693" role="img" aria-label="DiscVault — uitleen (voorbeeld)">
  <defs>
    <linearGradient id="l1" x1="0" y1="0" x2="1" y2="1"><stop offset="0" stop-color="#3a4a6b"/><stop offset="1" stop-color="#0f1420"/></linearGradient>
    <linearGradient id="l2" x1="0" y1="0" x2="1" y2="1"><stop offset="0" stop-color="#5a4a2a"/><stop offset="1" stop-color="#141008"/></linearGradient>
    <linearGradient id="l3" x1="0" y1="0" x2="1" y2="1"><stop offset="0" stop-color="#6b3a4a"/><stop offset="1" stop-color="#1a0f14"/></linearGradient>
  </defs>
  <rect width="320" height="693" fill="#0A0A0A"/>
  <text x="20" y="30" fill="#fff" font-family="Inter,sans-serif" font-size="12" font-weight="600">02:57</text>
  <g fill="#fff" opacity=".9"><rect x="272" y="20" width="16" height="10" rx="2"/><rect x="292" y="18" width="20" height="12" rx="3" opacity=".5"/></g>
  <!-- filter toolbar -->
  <rect x="20" y="52" width="150" height="30" rx="15" fill="#1C1C1E"/>
  <g stroke="#8E8E93" stroke-width="1.6" fill="none"><path d="M34 60v14l6-4 6 4V60"/><circle cx="66" cy="67" r="7"/><path d="M66 63v4l3 2"/></g>
  <path d="M92 63c3-3 6 0 6 0s3-3 6 0-6 8-6 8-9-5-6-8z" fill="#8E8E93"/>
  <g stroke="#8E8E93" stroke-width="1.6" fill="none"><path d="M120 60l8 0 0 8-4 6-4-6z"/><circle cx="150" cy="63" r="3"/><path d="M144 74a6 6 0 0112 0"/></g>
  <circle cx="150" cy="63" r="3" fill="#FF453A"/><path d="M144 74a6 6 0 0112 0" fill="#FF453A"/>
  <rect x="214" y="52" width="88" height="30" rx="15" fill="#1C1C1E"/><rect x="224" y="61" width="12" height="12" rx="2" fill="#FF453A"/><path d="M252 63h10M252 67h10M252 71h10" stroke="#8E8E93" stroke-width="2" stroke-linecap="round"/><path d="M286 62l0 10M283 65l3-3 3 3" fill="none" stroke="#FF453A" stroke-width="2" stroke-linecap="round" stroke-linejoin="round"/>
  <text x="20" y="126" fill="#fff" font-family="Space Grotesk,sans-serif" font-size="30" font-weight="700">Loans</text>
  <!-- action pills -->
  <rect x="118" y="146" width="82" height="34" rx="17" fill="rgba(255,69,58,.16)"/><circle cx="138" cy="163" r="7" fill="none" stroke="#FF453A" stroke-width="1.6"/><path d="M138 159v4l3 2" stroke="#FF453A" stroke-width="1.6" fill="none" stroke-linecap="round"/><text x="152" y="167" fill="#FF453A" font-family="Inter,sans-serif" font-size="12" font-weight="600">History</text>
  <rect x="208" y="146" width="94" height="34" rx="17" fill="rgba(255,69,58,.16)"/><path d="M224 163h10M229 158v10" stroke="#FF453A" stroke-width="2" stroke-linecap="round"/><text x="242" y="167" fill="#FF453A" font-family="Inter,sans-serif" font-size="12" font-weight="600">Loan Out</text>
  <text x="20" y="212" fill="#fff" font-family="Inter,sans-serif" font-size="13" font-weight="600">Active</text>
  <!-- borrowed discs -->
  <g font-family="Inter,sans-serif">
    <rect x="20" y="226" width="86" height="120" rx="9" fill="url(#l1)"/><text x="20" y="364" fill="#fff" font-size="13" font-weight="600">Grease</text><text x="20" y="382" fill="#8E8E93" font-size="12">Janet</text>
    <rect x="117" y="226" width="86" height="120" rx="9" fill="url(#l2)"/><text x="117" y="364" fill="#fff" font-size="13" font-weight="600">Bad Boys</text><text x="117" y="382" fill="#8E8E93" font-size="12">Jan</text>
    <rect x="214" y="226" width="86" height="120" rx="9" fill="url(#l3)"/><text x="214" y="364" fill="#fff" font-size="13" font-weight="600">Baby Driver</text><text x="214" y="382" fill="#8E8E93" font-size="12">Piet</text>
  </g>
  <!-- floating tab bar -->
  <rect x="20" y="645" width="280" height="40" rx="20" fill="#1C1C1E"/>
  <g font-family="Inter,sans-serif" font-size="8" text-anchor="middle">
    <rect x="52" y="656" width="12" height="12" rx="2" fill="none" stroke="#8E8E93" stroke-width="1.5"/><text x="58" y="681" fill="#8E8E93">Library</text>
    <path d="M128 656h10v14l-5-3-5 3z" fill="#FF453A"/><text x="133" y="681" fill="#FF453A">Lists</text>
    <circle cx="188" cy="662" r="7" fill="none" stroke="#8E8E93" stroke-width="1.5"/><path d="M188 659v6M185 662h6" stroke="#8E8E93" stroke-width="1.5" stroke-linecap="round"/><text x="188" y="681" fill="#8E8E93">Add</text>
    <circle cx="262" cy="662" r="7" fill="none" stroke="#8E8E93" stroke-width="1.5"/><circle cx="262" cy="660" r="2.5" fill="#8E8E93"/><path d="M257 667a5 5 0 0110 0" fill="#8E8E93"/><text x="262" y="681" fill="#8E8E93">Profile</text>
  </g>
</svg>
