<svg xmlns="http://www.w3.org/2000/svg" viewBox="0 0 320 693" role="img" aria-label="DiscVault — wishlist (voorbeeld)">
  <defs>
    <linearGradient id="w1" x1="0" y1="0" x2="1" y2="1"><stop offset="0" stop-color="#3a4a6b"/><stop offset="1" stop-color="#0f1420"/></linearGradient>
    <linearGradient id="w2" x1="0" y1="0" x2="1" y2="1"><stop offset="0" stop-color="#5a3a2a"/><stop offset="1" stop-color="#140c08"/></linearGradient>
    <linearGradient id="w3" x1="0" y1="0" x2="1" y2="1"><stop offset="0" stop-color="#2a3a5a"/><stop offset="1" stop-color="#080f1a"/></linearGradient>
    <linearGradient id="w4" x1="0" y1="0" x2="1" y2="1"><stop offset="0" stop-color="#2a5a4a"/><stop offset="1" stop-color="#08140f"/></linearGradient>
    <linearGradient id="w5" x1="0" y1="0" x2="1" y2="1"><stop offset="0" stop-color="#5a5a5a"/><stop offset="1" stop-color="#101010"/></linearGradient>
    <linearGradient id="w6" x1="0" y1="0" x2="1" y2="1"><stop offset="0" stop-color="#6b3a4a"/><stop offset="1" stop-color="#1a0f14"/></linearGradient>
  </defs>
  <rect width="320" height="693" fill="#0A0A0A"/>
  <text x="20" y="30" fill="#fff" font-family="Inter,sans-serif" font-size="12" font-weight="600">02:56</text>
  <g fill="#fff" opacity=".9"><rect x="272" y="20" width="16" height="10" rx="2"/><rect x="292" y="18" width="20" height="12" rx="3" opacity=".5"/></g>
  <!-- filter toolbar (heart active) -->
  <rect x="20" y="52" width="150" height="30" rx="15" fill="#1C1C1E"/>
  <g stroke="#8E8E93" stroke-width="1.6" fill="none"><path d="M34 60v14l6-4 6 4V60"/><circle cx="66" cy="67" r="7"/><path d="M66 63v4l3 2"/></g>
  <path d="M92 63c3-3 6.5 0 6.5 0s3.5-3 6.5 0-6.5 8.5-6.5 8.5-9.5-5.5-6.5-8.5z" fill="#FF453A"/>
  <g stroke="#8E8E93" stroke-width="1.6" fill="none"><path d="M120 60l8 0 0 8-4 6-4-6z"/><circle cx="150" cy="63" r="3"/><path d="M144 74a6 6 0 0112 0"/></g>
  <rect x="214" y="52" width="88" height="30" rx="15" fill="#1C1C1E"/><rect x="224" y="61" width="12" height="12" rx="2" fill="#FF453A"/><path d="M252 63h10M252 67h10M252 71h10" stroke="#8E8E93" stroke-width="2" stroke-linecap="round"/><path d="M286 62v10M283 65l3-3 3 3" fill="none" stroke="#FF453A" stroke-width="2" stroke-linecap="round" stroke-linejoin="round"/>
  <text x="20" y="118" fill="#fff" font-family="Space Grotesk,sans-serif" font-size="30" font-weight="700">Wishlist</text>
  <!-- search -->
  <rect x="20" y="134" width="280" height="40" rx="11" fill="#1C1C1E"/><text x="34" y="159" fill="#8E8E93" font-family="Inter,sans-serif" font-size="13">Search a title to find editions</text>
  <rect x="20" y="184" width="112" height="30" rx="9" fill="#1C1C1E"/><text x="76" y="203" fill="#8E8E93" font-family="Inter,sans-serif" font-size="12" text-anchor="middle">Find Editions</text>
  <text x="20" y="240" fill="#FF453A" font-family="Inter,sans-serif" font-size="15" font-weight="700">Add Manually</text><path d="M292 233l6 5-6 5" fill="none" stroke="#FF453A" stroke-width="2" stroke-linecap="round" stroke-linejoin="round"/>
  <!-- covers with 4K UHD top badge -->
  <g font-family="Inter,sans-serif">
    <rect x="20" y="258" width="86" height="120" rx="9" fill="url(#w1)"/><rect x="20" y="258" width="86" height="14" rx="4" fill="#000" opacity=".55"/><text x="63" y="268" fill="#fff" font-size="8" font-weight="700" text-anchor="middle">4K ULTRA HD</text>
    <text x="20" y="394" fill="#fff" font-size="11" font-weight="600">Project Hail…</text><text x="20" y="408" fill="#8E8E93" font-size="10">2026</text>
    <rect x="117" y="258" width="86" height="120" rx="9" fill="url(#w2)"/><rect x="117" y="258" width="86" height="14" rx="4" fill="#000" opacity=".55"/><text x="160" y="268" fill="#fff" font-size="8" font-weight="700" text-anchor="middle">4K ULTRA HD</text>
    <text x="117" y="394" fill="#fff" font-size="11" font-weight="600">The Greatest…</text><text x="117" y="408" fill="#8E8E93" font-size="10">2018</text>
    <rect x="214" y="258" width="86" height="120" rx="9" fill="url(#w3)"/><rect x="214" y="258" width="86" height="14" rx="4" fill="#000" opacity=".55"/><text x="257" y="268" fill="#fff" font-size="8" font-weight="700" text-anchor="middle">4K ULTRA HD</text>
    <text x="214" y="394" fill="#fff" font-size="11" font-weight="600">Blade Runner…</text><text x="214" y="408" fill="#8E8E93" font-size="10">2018</text>
    <rect x="20" y="424" width="86" height="120" rx="9" fill="url(#w4)"/><rect x="20" y="424" width="86" height="14" rx="4" fill="#000" opacity=".55"/><text x="63" y="434" fill="#fff" font-size="8" font-weight="700" text-anchor="middle">4K ULTRA HD</text>
    <text x="20" y="560" fill="#fff" font-size="11" font-weight="600">Moana</text><text x="20" y="574" fill="#8E8E93" font-size="10">2019</text>
    <rect x="117" y="424" width="86" height="120" rx="9" fill="url(#w5)"/><rect x="117" y="424" width="86" height="14" rx="4" fill="#000" opacity=".55"/><text x="160" y="434" fill="#fff" font-size="8" font-weight="700" text-anchor="middle">4K ULTRA HD</text>
    <text x="117" y="560" fill="#fff" font-size="11" font-weight="600">Disclosure…</text><text x="117" y="574" fill="#8E8E93" font-size="10">2026</text>
    <rect x="214" y="424" width="86" height="120" rx="9" fill="url(#w6)"/><rect x="214" y="424" width="86" height="14" rx="4" fill="#000" opacity=".55"/><text x="257" y="434" fill="#fff" font-size="8" font-weight="700" text-anchor="middle">4K ULTRA HD</text>
    <text x="214" y="560" fill="#fff" font-size="11" font-weight="600">The Devil…</text><text x="214" y="574" fill="#8E8E93" font-size="10">2026</text>
  </g>
  <rect x="0" y="600" width="320" height="45" fill="#0A0A0A" opacity=".85"/>
  <!-- floating tab bar -->
  <rect x="20" y="645" width="280" height="40" rx="20" fill="#1C1C1E"/>
  <g font-family="Inter,sans-serif" font-size="8" text-anchor="middle">
    <rect x="52" y="656" width="12" height="12" rx="2" fill="none" stroke="#8E8E93" stroke-width="1.5"/><text x="58" y="681" fill="#8E8E93">Library</text>
    <path d="M128 656h10v14l-5-3-5 3z" fill="#FF453A"/><text x="133" y="681" fill="#FF453A">Lists</text>
    <circle cx="188" cy="662" r="7" fill="none" stroke="#8E8E93" stroke-width="1.5"/><path d="M188 659v6M185 662h6" stroke="#8E8E93" stroke-width="1.5" stroke-linecap="round"/><text x="188" y="681" fill="#8E8E93">Add</text>
    <circle cx="262" cy="662" r="7" fill="none" stroke="#8E8E93" stroke-width="1.5"/><circle cx="262" cy="660" r="2.5" fill="#8E8E93"/><path d="M257 667a5 5 0 0110 0" fill="#8E8E93"/><text x="262" y="681" fill="#8E8E93">Profile</text>
  </g>
</svg>
